<?xml version="1.0" encoding="UTF-8" standalone="no"?><!DOCTYPE svg PUBLIC "-//W3C//DTD SVG 1.1//EN" "http://www.w3.org/Graphics/SVG/1.1/DTD/svg11.dtd"><svg width="100%" height="100%" viewBox="0 0 902 282" version="1.1" xmlns="http://www.w3.org/2000/svg" xmlns:xlink="http://www.w3.org/1999/xlink" xml:space="preserve" xmlns:serif="http://www.serif.com/" style="fill-rule:evenodd;clip-rule:evenodd;stroke-linejoin:round;stroke-miterlimit:1.41421;"><path d="M53.64,78.02l-36.28,0l0,167.55l-17.36,0l0,36.3l18.14,0c19.472,-0.022 35.488,-16.038 35.51,-35.51l0,-168.34" style="fill-rule:nonzero;"/><path d="M53.64,0.19l-36.28,0l0,38.3l36.28,0l0,-38.3" style="fill-rule:nonzero;"/><path d="M140,77.76c-36.207,0 -66,29.793 -66,66c0,36.207 29.793,66 66,66c36.207,0 66,-29.793 66,-66c0,-36.207 -29.793,-66 -66,-66m0,95.74c-16.309,0 -29.73,-13.421 -29.73,-29.73c0,-16.309 13.421,-29.73 29.73,-29.73c16.309,0 29.73,13.421 29.73,29.73c0,0.007 0,0.013 0,0.02c0,16.298 -13.412,29.71 -29.71,29.71c-0.007,0 -0.013,0 -0.02,0" style="fill-rule:nonzero;"/><path d="M290,77.41c-36.191,0.023 -65.958,29.809 -65.958,66c0,36.207 29.793,66 66,66c17.482,0 34.268,-6.946 46.638,-19.3l-25.68,-25.66c-5.575,5.587 -13.152,8.73 -21.045,8.73c-16.309,0 -29.73,-13.421 -29.73,-29.73c0,-16.309 13.421,-29.73 29.73,-29.73c7.893,0 15.47,3.143 21.045,8.73l25.66,-25.66c-12.335,-12.429 -29.149,-19.412 -46.66,-19.38" style="fill-rule:nonzero;"/><path d="M411,77.76c-36.207,0 -66,29.793 -66,66c0,36.207 29.793,66 66,66c36.207,0 66,-29.793 66,-66c0,-36.207 -29.793,-66 -66,-66m0,95.74c-16.309,0 -29.73,-13.421 -29.73,-29.73c0,-16.309 13.421,-29.73 29.73,-29.73c16.309,0 29.73,13.421 29.73,29.73c0,0.007 0,0.013 0,0.02c0,16.298 -13.412,29.71 -29.71,29.71c-0.007,0 -0.013,0 -0.02,0" style="fill-rule:nonzero;"/><path d="M627.05,0l-36.29,0l0,84.92c22.209,11.219 36.275,34.068 36.29,58.95l0,-143.87m0,143.85c-0.019,24.879 -14.084,47.722 -36.29,58.94l0,7.08l36.29,0l0,-66" style="fill-rule:nonzero;"/><path d="M561,77.87c-36.184,0.033 -65.94,29.816 -65.94,66c0,36.207 29.794,66 66,66c10.308,0 20.473,-2.415 29.68,-7.05l0,-58.95c-0.005,16.311 -13.429,29.73 -29.74,29.73c-16.315,0 -29.74,-13.425 -29.74,-29.74c0,-16.315 13.425,-29.74 29.74,-29.74c0.01,0 0.02,0 0.03,0c16.315,0 29.74,13.425 29.74,29.74c0,0.003 0,0.007 0,0.01l0,-58.95c-9.229,-4.661 -19.431,-7.076 -29.77,-7.05" style="fill-rule:nonzero;"/><path d="M590.77,84.92l0,117.87c22.194,-11.219 36.253,-34.051 36.28,-58.92c-0.023,-24.872 -14.083,-47.709 -36.28,-58.93" style="fill-rule:nonzero;"/><path d="M714,77.87c-36.188,0.049 -65.951,29.812 -66,66c0,37 29.89,66 68,66c19.69,0 35.48,-6.28 52.77,-21l-23.47,-27.63c-10.72,9.12 -19.09,11.64 -30,11.64c-5.382,0.205 -10.707,-1.187 -15.3,-4l-1.19,0.5l-36.75,15.18c-6.863,-8.64 -11.395,-18.898 -13.16,-29.79l37.24,-15.38c1.103,-10.099 7.515,-18.877 16.8,-23c3.246,-1.438 6.76,-2.174 10.31,-2.16c6.357,0.006 12.537,2.116 17.57,6l0.56,0.5l36.47,-15.06c2.499,3.516 4.649,7.267 6.42,11.2c-10.603,-23.72 -34.288,-39.046 -60.27,-39m60.31,39.08l0.06,0.14l-0.06,-0.14m0.14,0.32l0,0.06l0,-0.06m7.51,17.75l-36.59,15.12l36.63,-15.14" style="fill-rule:nonzero;"/><path d="M774.27,116.87l0,0.06l0,-0.06m0.09,0.2l0.08,0.18l-0.08,-0.18m0.11,0.23l0.11,0.26l-0.11,-0.26m0.13,0.31l0.1,0.23l-0.1,-0.23m0.12,0.28l0.11,0.26l7.13,16.86l-7.13,-16.86l-0.11,-0.26m-43.34,2.81l-22.38,9.25l-21.55,8.92l-1.32,0.54c-1.8,15.43 6.2,23.89 12.77,28.69c0.37,0.27 0.75,0.52 1.13,0.77l40.36,-16.67l5,-2.06c0,-0.08 -4.33,-20.57 -14,-29.43" style="fill-rule:nonzero;"/><path d="M767.85,105.63l-36.46,15.07c9.66,8.84 14,29.33 14,29.42l36.61,-15.11l-7.12,-16.85l-0.12,-0.27l-0.09,-0.22l-0.11,-0.26l0,-0.06l-0.08,-0.17l-0.06,-0.15l0,-0.06c-1.769,-3.949 -3.923,-7.714 -6.43,-11.24m-81.71,33.76l-37.38,15.28c1.781,10.881 6.322,21.125 13.19,29.75l36.75,-15.18l1.16,-0.47c-0.38,-0.24 -0.76,-0.5 -1.12,-0.77c-6.57,-4.79 -14.57,-13.25 -12.77,-28.68" style="fill-rule:nonzero;"/><path d="M889.06,77.75l-51.47,0c0,0 0,0 0,0c-23.09,0 -42.09,19 -42.09,42.09c0,23.09 19,42.09 42.09,42.09l21.66,0c3.083,0.128 5.549,2.699 5.549,5.785c0,3.086 -2.466,5.657 -5.549,5.785l-51.47,0l0,36.28l52,0c22.747,-0.469 41.202,-19.31 41.202,-42.061c0,-22.967 -18.806,-41.907 -41.772,-42.069l-21.65,0c-3.187,0 -5.81,-2.623 -5.81,-5.81c0,-3.187 2.623,-5.81 5.81,-5.81l51.47,0l0,-36.28" style="fill-rule:nonzero;"/></svg>